# xmcd
#
# Track frame offsets: 
#        150
#        18742
#        36240
#        51602
#        82920
#        108207
#        141147
#        163357
#        179420
#        194240
#        214572
#        239042
#
# Disc length: 3378 seconds
#
# Revision: 4
# Processed by: cddbd v1.5.2PL0 Copyright (c) Steve Scherf et al.
# Submitted via: ExactAudioCopy v1.0b3
#
DISCID=b70d300c
DTITLE=Quartango Espresso - Espresso
DYEAR=1995
DGENRE=Tango
TTITLE0=Quartango Espresso - A Media Luz
TTITLE1=Quartango Espresso - Canaro En Paris
TTITLE2=Quartango Espresso - Bando
TTITLE3=Quartango Espresso - Tango Sulla Morte D'Un Eroe
TTITLE4=Quartango Espresso - L'Envol De Pantaleón
TTITLE5=Quartango Espresso - Neurotango
TTITLE6=Quartango Espresso - Vassalean
TTITLE7=Quartango Espresso - B.,G. and B.
TTITLE8=Quartango Espresso - Balada Para Un Loco
TTITLE9=Quartango Espresso - El Expatriado
TTITLE10=Quartango Espresso - Zum
TTITLE11=Quartango Espresso - La Milonga De Buenos Aires
EXTD=
EXTT0=
EXTT1=
EXTT2=
EXTT3=
EXTT4=
EXTT5=
EXTT6=
EXTT7=
EXTT8=
EXTT9=
EXTT10=
EXTT11=
PLAYORDER=
